<svg width="24" height="25" viewBox="0 0 24 25" fill="none" xmlns="http://www.w3.org/2000/svg">
    <path d="M19.14 13.4399C19.18 13.1399 19.2 12.8299 19.2 12.4999C19.2 12.1799 19.18 11.8599 19.13 11.5599L21.16 9.9799C21.34 9.8399 21.39 9.5699 21.28 9.3699L19.36 6.0499C19.24 5.8299 18.99 5.7599 18.77 5.8299L16.38 6.7899C15.88 6.4099 15.35 6.0899 14.76 5.8499L14.4 3.3099C14.36 3.0699 14.16 2.8999 13.92 2.8999H10.08C9.84 2.8999 9.65 3.0699 9.61 3.3099L9.25 5.8499C8.66 6.0899 8.12 6.4199 7.63 6.7899L5.24 5.8299C5.02 5.7499 4.77 5.8299 4.65 6.0499L2.74 9.3699C2.62 9.5799 2.66 9.8399 2.86 9.9799L4.89 11.5599C4.84 11.8599 4.8 12.1899 4.8 12.4999C4.8 12.8099 4.82 13.1399 4.87 13.4399L2.84 15.0199C2.66 15.1599 2.61 15.4299 2.72 15.6299L4.64 18.9499C4.76 19.1699 5.01 19.2399 5.23 19.1699L7.62 18.2099C8.12 18.5899 8.65 18.9099 9.24 19.1499L9.6 21.6899C9.65 21.9299 9.84 22.0999 10.08 22.0999H13.92C14.16 22.0999 14.36 21.9299 14.39 21.6899L14.75 19.1499C15.34 18.9099 15.88 18.5899 16.37 18.2099L18.76 19.1699C18.98 19.2499 19.23 19.1699 19.35 18.9499L21.27 15.6299C21.39 15.4099 21.34 15.1599 21.15 15.0199L19.14 13.4399ZM12 16.0999C10.02 16.0999 8.4 14.4799 8.4 12.4999C8.4 10.5199 10.02 8.8999 12 8.8999C13.98 8.8999 15.6 10.5199 15.6 12.4999C15.6 14.4799 13.98 16.0999 12 16.0999Z" fill="#6B6B6C"/>
</svg>
